<svg xmlns="http://www.w3.org/2000/svg" xmlns:xlink="http://www.w3.org/1999/xlink"><defs><clipPath id="a"><path d="M0 0h22v22H0z"/></clipPath></defs><symbol id="icon-arrow-down" viewBox="0 0 22 22"><path d="m21 7-10 9L1 7"/></symbol><symbol id="icon-arrow" viewBox="0 0 22 22"><g clip-path="url(#a)"><path d="M1 21 21 1m0 0H1.132M21 1v19.868"/></g></symbol><symbol id="icon-check" viewBox="0 0 22 22"><g fill="none"><path stroke-linecap="round" stroke-linejoin="round" d="M1 9.5 8.368 20 21 2"/></g></symbol><symbol id="icon-close" viewBox="0 0 20 20"><g fill="none"><path d="M.293 18.291a1 1 0 101.414 1.414L10 11.413l8.292 8.292a1 1 0 101.414-1.414l-8.292-8.292 8.292-8.292A1 1 0 1018.291.293L9.999 8.585 1.707.293A1 1 0 10.293 1.707L8.585 10 .293 18.291z"/></g></symbol><symbol id="icon-cross" viewBox="0 0 22 22"><path stroke-linecap="round" stroke-linejoin="round" d="m2 20 9-9m0 0 9-9m-9 9 9 9m-9-9L2 2"/></symbol><symbol id="icon-menu" viewBox="0 0 22 22"><path stroke-linecap="round" d="M1 6h20M1 11h20M1 16h20"/></symbol><symbol id="icon-minus" viewBox="0 0 22 22"><g fill="none"><path stroke="#316DC2" d="M1 11h20"/></g></symbol><symbol id="icon-ok" viewBox="0 0 22 22"><path d="M11 3.328c1.323 0 2.399 1.055 2.399 2.351 0 1.293-1.076 2.348-2.399 2.348S8.601 6.972 8.601 5.679c0-1.296 1.076-2.351 2.399-2.351Zm0 8.027c3.196 0 5.794-2.547 5.794-5.676C16.794 2.547 14.196 0 11 0 7.804 0 5.21 2.547 5.21 5.68c0 3.128 2.594 5.675 5.79 5.675Zm2.343 4.633a11.044 11.044 0 0 0 3.363-1.368 1.644 1.644 0 0 0 .534-2.292 1.715 1.715 0 0 0-2.343-.524 7.486 7.486 0 0 1-7.798 0 1.71 1.71 0 0 0-2.339.524 1.644 1.644 0 0 0 .534 2.292 11.044 11.044 0 0 0 3.363 1.368l-3.24 3.171a1.641 1.641 0 0 0 0 2.352 1.727 1.727 0 0 0 2.403 0L11 18.394l3.184 3.117a1.715 1.715 0 0 0 2.399 0 1.641 1.641 0 0 0 0-2.352l-3.24-3.171Z"/></symbol><symbol id="icon-plus" viewBox="0 0 22 22"><g fill="none"><path d="M11 1v10m0 0v10m0-10H1m10 0h10"/></g></symbol><symbol id="icon-rd" viewBox="0 0 22 22"><path d="M12.945.5c-.641 0-1.243.342-1.629.834-.386.493-.599 1.093-.754 1.726-.246 1.018-.322 2.147-.34 3.165-1.803.126-3.435.686-4.79 1.553-.55-.485-1.213-.755-1.848-.748-.724.007-1.41.335-1.921 1.007-.976 1.284-.864 3.384.267 4.631-.07.385-.122.78-.122 1.18 0 4.229 4.116 7.652 9.192 7.652 5.076 0 9.192-3.427 9.192-7.652 0-.4-.052-.795-.122-1.18 1.13-1.247 1.243-3.347.267-4.631-.51-.672-1.197-1-1.92-1.007-.636-.007-1.298.263-1.849.748-1.35-.863-2.972-1.424-4.766-1.553.025-.939.089-1.913.268-2.647.112-.46.246-.795.389-.978.143-.183.246-.259.486-.259.52 0 .587.176.9.604.158.216.34.486.632.748.292.263.724.49 1.192.49V2.34c-.131 0-.155-.004-.243-.086-.089-.083-.21-.273-.39-.518C14.678 1.244 13.982.5 12.947.5Zm5.058.173c-1.21 0-2.188 1.157-2.188 2.589 0 1.43.978 2.589 2.188 2.589 1.21 0 2.189-1.158 2.189-2.59 0-1.43-.98-2.588-2.189-2.588Zm0 .92c.778 0 1.41.748 1.41 1.669 0 .92-.632 1.668-1.41 1.668-.778 0-1.41-.748-1.41-1.668 0-.92.632-1.669 1.41-1.669ZM11 7.663c4.307 0 7.951 2.837 7.951 6.185 0 3.351-3.644 6.185-7.951 6.185-4.307 0-7.951-2.834-7.951-6.185 0-3.348 3.644-6.185 7.951-6.185Zm-7.392.834c.216.004.44.061.656.173-.78.701-1.4 1.507-1.823 2.416-.292-.712-.213-1.6.146-2.07a1.241 1.241 0 0 1 1.02-.519Zm14.784 0c.398-.003.76.173 1.021.518.36.471.438 1.36.146 2.071-.422-.91-1.042-1.715-1.823-2.416a1.49 1.49 0 0 1 .656-.173ZM7.888 10.8c-.779 0-1.41.748-1.41 1.668 0 .92.631 1.669 1.41 1.669.778 0 1.41-.748 1.41-1.669 0-.92-.632-1.668-1.41-1.668Zm6.225 0c-.779 0-1.41.748-1.41 1.668 0 .92.631 1.669 1.41 1.669.778 0 1.41-.748 1.41-1.669 0-.92-.632-1.668-1.41-1.668Zm-6.98 5.667c.496 1.212 2.028 2.387 3.867 2.387s3.395-1.175 3.89-2.387c-.9.687-2.319 1.15-3.89 1.15-1.571 0-2.967-.463-3.866-1.15Z"/></symbol><symbol id="icon-star" viewBox="0 0 22 22"><path d="m11 0 3.014 5.475L20 5.5 17.027 11 20 16.5l-5.986.025L11 22l-3.014-5.475L2 16.5 4.972 11 2 5.5l5.986-.025L11 0Z"/></symbol><symbol id="icon-vk" viewBox="0 0 22 22"><path d="M21.804 15.703c-.06-.094-.425-.854-2.185-2.416-1.843-1.635-1.595-1.37.624-4.197 1.352-1.722 1.892-2.774 1.723-3.224-.16-.428-1.155-.315-1.155-.315l-3.306.018s-.244-.031-.427.073c-.178.102-.292.339-.292.339s-.524 1.333-1.222 2.466c-1.473 2.391-2.063 2.517-2.304 2.369-.56-.346-.419-1.391-.419-2.133 0-2.317.367-3.283-.716-3.533-.36-.083-.625-.138-1.545-.147-1.18-.012-2.18.004-2.744.268-.377.176-.667.57-.49.591.219.028.714.128.976.47.34.44.328 1.431.328 1.431s.195 2.728-.455 3.067c-.447.233-1.06-.242-2.373-2.412-.672-1.11-1.18-2.34-1.18-2.34s-.098-.229-.273-.35c-.212-.15-.509-.197-.509-.197L.717 5.55s-.472.013-.645.209c-.154.174-.013.535-.013.535s2.462 5.504 5.248 8.279c2.556 2.543 5.458 2.376 5.458 2.376h1.314s.398-.042.6-.25c.187-.193.18-.553.18-.553s-.026-1.686.793-1.935c.808-.244 1.844 1.63 2.943 2.352.83.546 1.462.426 1.462.426l2.938-.04s1.538-.09.809-1.246Z"/></symbol><symbol id="logo" viewBox="0 0 52 52"><g fill="none"><rect width="52" height="52" fill="#fff" rx="26"/><path fill="#316DC2" d="M12 39.87v-6.237h.676l2.835 5.245 2.82-5.245h.687v6.233h-.701v-4.812l-2.57 4.816h-.476l-2.565-4.816v4.816H12ZM30.285 40a4.03 4.03 0 0 1-1.363-.217 2.655 2.655 0 0 1-.997-.623 1.937 1.937 0 0 1-.51-.957l.75-.109c.121.404.375.722.762.953.388.228.85.342 1.388.342.354 0 .671-.047.952-.143.28-.098.5-.236.66-.416a.923.923 0 0 0 .241-.636.793.793 0 0 0-.1-.412.867.867 0 0 0-.265-.285 1.702 1.702 0 0 0-.361-.187 3.144 3.144 0 0 0-.38-.125l-1.83-.473a3.638 3.638 0 0 1-.61-.207 2.17 2.17 0 0 1-.491-.308 1.318 1.318 0 0 1-.32-.424 1.277 1.277 0 0 1-.116-.555c0-.352.107-.657.32-.914.214-.257.506-.455.877-.593a3.54 3.54 0 0 1 1.268-.204c.48 0 .91.074 1.287.221.38.148.695.358.942.633.247.271.41.593.49.966l-.77.12a1.413 1.413 0 0 0-.346-.705c-.18-.2-.411-.352-.692-.46a2.53 2.53 0 0 0-.916-.168c-.324 0-.613.047-.867.143-.25.092-.45.22-.596.38a.801.801 0 0 0-.22.555c0 .211.066.38.2.507.137.127.304.227.5.299.201.072.395.131.582.177l1.412.36c.147.035.32.085.516.152.2.063.395.156.582.277.19.118.347.274.47.468.124.193.186.438.186.736 0 .289-.067.547-.2.775-.13.228-.316.42-.557.576a2.723 2.723 0 0 1-.836.355 4.077 4.077 0 0 1-1.042.126Z"/><path fill="#316DC2" fill-rule="evenodd" d="m23.009 33.633-2.485 6.237h.767l.602-1.512h3.204l.607 1.512h.766l-2.485-6.237h-.976Zm1.849 4.128-1.368-3.41-1.359 3.41h-.5v.597h.262l.238-.597h2.727Z" clip-rule="evenodd"/><path fill="#316DC2" d="M21.631 37.76v.598h.262l.238-.597h-.5Z"/><path fill="#316DC2" fill-rule="evenodd" d="m36.539 33.633-2.485 6.237h.766l.603-1.512h3.204l.607 1.512H40l-2.485-6.237h-.976Zm1.849 4.128-1.368-3.41-1.359 3.41h-.5v.597h.262l.238-.597h2.727Z" clip-rule="evenodd"/><path fill="#316DC2" d="M35.161 37.76v.598h.262l.238-.597h-.5ZM17.813 17.476c-.522.378-.828 1.177-.252 2.133.577.956 8.811 7.407 9.113 7.587.302.179.604.209 1.372-.419.769-.627 7.19-5.527 7.356-5.675.264-.234.33-.806 0-1.075 0 0-7.78 5.914-8.034 6.153-.255.24-.651-.15-.577-.657.075-.508.13-.568 1.118-1.344.988-.777 6.59-5.09 6.845-5.28.287-.217.294-.599-.177-.936-.656-.47-7.74-5.587-7.976-5.766-.238-.18-.566-.342-1.06.016-.494.359-6.77 4.57-7.729 5.263Z"/><path fill="#316DC2" d="M26.674 27.825c-.198-.117-3.811-2.935-6.435-5.13v4.575c-.002 3.34 9.26 5.124 12.327 1.019v-4.373c-1.885 1.447-4.09 3.14-4.52 3.491-.768.627-1.07.597-1.372.418Z"/><path fill="#98B8E6" d="M30.593 22.81s1.377.702 1.475 3.533l-.667-.187-.534 1.152c-.226-3.1-1.455-3.549-1.455-3.549l1.181-.95Z"/></g></symbol></svg>