<svg xmlns="http://www.w3.org/2000/svg" fill="none" viewBox="0 0 22 22"><path fill="#316DC2" fill-rule="evenodd" d="M7.036 1.03a8.138 8.138 0 0 1 8.04.064c2.45 1.466 3.938 4.08 3.924 6.894-.057 2.794-1.653 5.421-3.649 7.452a21.227 21.227 0 0 1-3.838 3.102c-.144.08-.302.133-.466.158a.965.965 0 0 1-.446-.13 20.857 20.857 0 0 1-5.53-5.003A9.965 9.965 0 0 1 3 7.847C2.998 5.03 4.54 2.428 7.036 1.03ZM8.48 9.014a2.718 2.718 0 0 0 2.512 1.647 2.726 2.726 0 0 0 1.923-.771 2.62 2.62 0 0 0 .794-1.884 2.664 2.664 0 0 0-1.671-2.468 2.757 2.757 0 0 0-2.965.572 2.626 2.626 0 0 0-.593 2.904Z" clip-rule="evenodd"/><path fill="#316DC2" d="M16.714 20.9c0 .608-2.558 1.1-5.714 1.1-3.156 0-5.714-.492-5.714-1.1 0-.607 2.558-1.1 5.714-1.1 3.156 0 5.714.492 5.714 1.1Z"/></svg>